<svg width="29" height="22" viewBox="0 0 29 22" fill="none" xmlns="http://www.w3.org/2000/svg">
<path d="M28.7061 19.082L27.9697 20.1621L23.4238 17.0605C21.1748 18.8027 18.0598 19.8848 14.6143 19.8848C11.9387 19.8847 9.46265 19.2312 7.43555 18.125L0.59668 21.5566L3.99609 15.291C2.85539 13.8484 2.19836 12.155 2.19824 10.3438C2.19824 8.10263 3.20535 6.04341 4.88867 4.41504L0 1.08008L0.736328 0L28.7061 19.082Z" fill="black" style="fill:black;fill-opacity:1;"/>
<path d="M14.6143 0.801758C21.4716 0.801758 27.0312 5.07439 27.0312 10.3438C27.0311 11.997 26.4825 13.5515 25.5195 14.9072L7.54004 2.50293C9.54736 1.43152 11.985 0.801779 14.6143 0.801758Z" fill="black" style="fill:black;fill-opacity:1;"/>
</svg>
