<svg preserveAspectRatio="none" width="100%" height="100%" overflow="visible" style="display: block;" viewBox="0 0 56.0001 6.00005" fill="none" xmlns="http://www.w3.org/2000/svg">
<g id="CONTINUED">
<path id="Vector" opacity="0.7" d="M53.2285 5.90336H51.363V0.0795898H53.2876C53.8522 0.0795898 54.3372 0.196179 54.7423 0.429358C55.1475 0.66064 55.458 0.993346 55.6737 1.42748C55.8913 1.85971 56.0001 2.3782 56.0001 2.98295C56.0001 3.58959 55.8904 4.11092 55.6709 4.54695C55.4533 4.98297 55.1381 5.31852 54.7255 5.5536C54.3128 5.78678 53.8138 5.90336 53.2285 5.90336ZM52.2325 5.13558H53.1807C53.6196 5.13558 53.9845 5.05217 54.2752 4.88534C54.566 4.71662 54.7836 4.47301 54.928 4.15453C55.0725 3.83414 55.1447 3.44362 55.1447 2.98295C55.1447 2.52607 55.0725 2.13839 54.928 1.8199C54.7855 1.50141 54.5726 1.2597 54.2893 1.09477C54.0061 0.929838 53.6543 0.847373 53.2342 0.847373H52.2325V5.13558Z" fill="var(--fill-0, black)" style="fill:black;fill-opacity:1;"/>
<path id="Vector_2" opacity="0.7" d="M45.4001 5.90336V0.0795898H49.013V0.835998H46.2695V2.61043H48.8244V3.36399H46.2695V5.14696H49.0467V5.90336H45.4001Z" fill="var(--fill-0, black)" style="fill:black;fill-opacity:1;"/>
<path id="Vector_3" opacity="0.7" d="M42.075 0.0795898H42.9472V3.90997C42.9472 4.31756 42.8525 4.6787 42.6631 4.9934C42.4736 5.3062 42.2072 5.55265 41.8639 5.73275C41.5207 5.91095 41.1183 6.00005 40.6568 6.00005C40.1973 6.00005 39.7958 5.91095 39.4525 5.73275C39.1093 5.55265 38.8429 5.3062 38.6534 4.9934C38.464 4.6787 38.3692 4.31756 38.3692 3.90997V0.0795898H39.2387V3.83888C39.2387 4.10239 39.2959 4.33652 39.4103 4.54126C39.5266 4.746 39.6908 4.90714 39.9028 5.02468C40.1147 5.14032 40.3661 5.19814 40.6568 5.19814C40.9495 5.19814 41.2018 5.14032 41.4137 5.02468C41.6276 4.90714 41.7908 4.746 41.9033 4.54126C42.0178 4.33652 42.075 4.10239 42.075 3.83888V0.0795898Z" fill="var(--fill-0, black)" style="fill:black;fill-opacity:1;"/>
<path id="Vector_4" opacity="0.7" d="M35.9125 0.0795898V5.90336H35.1134L32.1843 1.63222H32.1308V5.90336H31.2614V0.0795898H32.0661L34.9981 4.35642H35.0515V0.0795898H35.9125Z" fill="var(--fill-0, black)" style="fill:black;fill-opacity:1;"/>
<path id="Vector_5" opacity="0.7" d="M28.8058 0.0795898V5.90336H27.9364V0.0795898H28.8058Z" fill="var(--fill-0, black)" style="fill:black;fill-opacity:1;"/>
<path id="Vector_6" opacity="0.7" d="M21.3028 0.835998V0.0795898H25.7626V0.835998H23.9646V5.90336H23.098V0.835998H21.3028Z" fill="var(--fill-0, black)" style="fill:black;fill-opacity:1;"/>
<path id="Vector_7" opacity="0.7" d="M19.1294 0.0795898V5.90336H18.3303L15.4012 1.63222H15.3477V5.90336H14.4783V0.0795898H15.283L18.215 4.35642H18.2684V0.0795898H19.1294Z" fill="var(--fill-0, black)" style="fill:black;fill-opacity:1;"/>
<path id="Vector_8" opacity="0.7" d="M12.2063 2.99151C12.2063 3.61332 12.0938 4.14792 11.8687 4.59532C11.6436 5.04083 11.335 5.38396 10.9429 5.62472C10.5528 5.86359 10.1091 5.98302 9.61202 5.98302C9.11305 5.98302 8.66754 5.86359 8.27548 5.62472C7.88531 5.38396 7.57767 5.03988 7.35257 4.59248C7.12747 4.14508 7.01491 3.61142 7.01491 2.99151C7.01491 2.3697 7.12747 1.83604 7.35257 1.39054C7.57767 0.943141 7.88531 0.600008 8.27548 0.361142C8.66754 0.120381 9.11305 0 9.61202 0C10.1091 0 10.5528 0.120381 10.9429 0.361142C11.335 0.600008 11.6436 0.943141 11.8687 1.39054C12.0938 1.83604 12.2063 2.3697 12.2063 2.99151ZM11.3453 2.99151C11.3453 2.51757 11.2693 2.11851 11.1174 1.79434C10.9673 1.46827 10.761 1.22182 10.4984 1.05499C10.2376 0.886268 9.94217 0.801907 9.61202 0.801907C9.28 0.801907 8.98362 0.886268 8.72287 1.05499C8.46213 1.22182 8.25579 1.46827 8.10384 1.79434C7.95378 2.11851 7.87874 2.51757 7.87874 2.99151C7.87874 3.46545 7.95378 3.86545 8.10384 4.19152C8.25579 4.5157 8.46213 4.76215 8.72287 4.93087C8.98362 5.0977 9.28 5.18111 9.61202 5.18111C9.94217 5.18111 10.2376 5.0977 10.4984 4.93087C10.761 4.76215 10.9673 4.5157 11.1174 4.19152C11.2693 3.86545 11.3453 3.46545 11.3453 2.99151Z" fill="var(--fill-0, black)" style="fill:black;fill-opacity:1;"/>
<path id="Vector_9" opacity="0.7" d="M4.97193 1.97349H4.09403C4.06027 1.78391 3.99743 1.61708 3.90551 1.47301C3.8136 1.32893 3.70104 1.20665 3.56786 1.10618C3.43467 1.0057 3.28554 0.92987 3.12047 0.878685C2.95727 0.827499 2.78376 0.801907 2.59992 0.801907C2.2679 0.801907 1.97058 0.886268 1.70796 1.05499C1.44722 1.22371 1.24087 1.47111 1.08893 1.79718C0.938861 2.12325 0.863827 2.52136 0.863827 2.99151C0.863827 3.46545 0.938861 3.86545 1.08893 4.19152C1.24087 4.5176 1.44815 4.76404 1.71077 4.93087C1.97339 5.0977 2.26884 5.18111 2.59711 5.18111C2.77907 5.18111 2.95164 5.15647 3.11484 5.10718C3.27992 5.05599 3.42905 4.98111 3.56223 4.88253C3.69542 4.78395 3.80797 4.66357 3.89988 4.52139C3.99368 4.37731 4.05839 4.21238 4.09403 4.02659L4.97193 4.02944C4.92503 4.3157 4.83406 4.57921 4.699 4.81997C4.56581 5.05884 4.39417 5.26547 4.18408 5.43988C3.97586 5.6124 3.73762 5.74605 3.46938 5.84084C3.20113 5.93562 2.9085 5.98302 2.59148 5.98302C2.09251 5.98302 1.64793 5.86359 1.25776 5.62472C0.867579 5.38396 0.55994 5.03988 0.334839 4.59248C0.111613 4.14508 0 3.61142 0 2.99151C0 2.3697 0.112551 1.83604 0.337652 1.39054C0.562754 0.943141 0.870393 0.600008 1.26057 0.361142C1.65074 0.120381 2.09438 0 2.59148 0C2.89724 0 3.18237 0.0445504 3.44687 0.133651C3.71324 0.220856 3.95241 0.349768 4.16438 0.520386C4.37635 0.689109 4.55174 0.895747 4.69055 1.1403C4.82937 1.38296 4.92316 1.66069 4.97193 1.97349Z" fill="var(--fill-0, black)" style="fill:black;fill-opacity:1;"/>
</g>
</svg>
