<svg preserveAspectRatio="none" width="100%" height="100%" overflow="visible" style="display: block;" viewBox="0 0 38.0112 37.8814" fill="none" xmlns="http://www.w3.org/2000/svg">
<path id="Star 1" d="M19.0056 1.65195L20.7832 8.41839L24.6615 2.59575L24.1457 9.57273L29.7045 5.32487L26.9512 11.7563L33.5881 9.54357L28.8957 14.7326L35.8914 14.7947L29.7684 18.1789L36.3649 20.5092L29.4748 21.7219L34.9573 26.0678L28.0467 24.9776L31.821 30.8682L25.6389 27.5932L27.296 34.3901L22.5123 29.2853L21.8727 36.252L19.0056 29.8704L16.1386 36.252L15.499 29.2853L10.7152 34.3901L12.3723 27.5932L6.19018 30.8682L9.9645 24.9776L3.05394 26.0678L8.53642 21.7219L1.64631 20.5092L8.24284 18.1789L2.11982 14.7947L9.11557 14.7326L4.42318 9.54357L11.06 11.7563L8.30676 5.32487L13.8655 9.57273L13.3497 2.59575L17.228 8.41839L19.0056 1.65195Z" fill="var(--fill-0, white)" stroke="var(--stroke-0, black)" style="fill:white;fill-opacity:1;stroke:black;stroke-opacity:1;" stroke-width="0.83946"/>
</svg>
