<svg preserveAspectRatio="none" width="100%" height="100%" overflow="visible" style="display: block;" viewBox="0 0 32.9238 33.591" fill="none" xmlns="http://www.w3.org/2000/svg">
<g id="Ellipse 4">
<circle cx="16.912" cy="16.7827" r="15.9497" fill="var(--fill-0, white)" style="fill:white;fill-opacity:1;"/>
<path d="M1.80331 24.803C0.487856 22.3686 0.0297388 19.6772 0.00148886 16.9611C0.000883877 16.9017 0.000522792 16.8423 0.000409901 16.7827C-0.0214028 13.4647 0.826417 9.99266 2.76759 7.21202C4.71014 4.40389 7.53147 2.21268 10.7124 1.03798C12.6973 0.299386 14.8153 -0.047169 16.912 0.00514859C18.1748 0.0355051 19.4322 0.20834 20.6508 0.521715C23.8903 1.34778 26.8307 3.19237 28.9753 5.68011C30.436 7.36667 31.5386 9.34638 32.1944 11.4489C32.4829 12.3716 32.6862 13.316 32.8034 14.2689C32.8907 14.9783 32.9305 15.6968 32.9228 16.4081C32.9218 16.5073 32.9093 16.6028 32.8881 16.6731C32.8668 16.7434 32.839 16.7829 32.8103 16.7827C32.7815 16.7826 32.7538 16.7429 32.7317 16.6733C32.7097 16.6038 32.695 16.51 32.6895 16.4123C32.6503 15.7063 32.5636 14.9997 32.4308 14.3082C32.283 13.5383 32.0778 12.7821 31.8179 12.0477C31.8928 11.895 31.9263 11.704 31.8552 11.3894C31.819 11.2288 31.7413 11.0013 31.6551 10.8468C31.5778 10.7079 31.4994 10.6126 31.4241 10.5224C31.3453 10.4284 31.2701 10.3404 31.1998 10.2157C31.0806 10.0044 30.9344 9.81918 30.7777 9.63037C30.7206 9.56163 30.662 9.4923 30.6026 9.4209C30.2304 8.78088 29.8138 8.16956 29.3569 7.59163C29.1979 7.35554 29.0435 7.1433 28.8991 6.97467C28.7694 6.82332 28.6319 6.70047 28.4891 6.58526C28.4112 6.50237 28.3325 6.42042 28.2529 6.33929C27.739 5.81578 27.1893 5.3296 26.6092 4.88542C26.1872 4.50211 25.724 4.11678 25.0703 3.69098C24.788 3.50785 24.5097 3.3271 24.2357 3.16096C23.832 2.91591 23.4384 2.70354 23.0734 2.56375C22.8293 2.47015 22.5827 2.35242 22.331 2.24089C21.9954 2.0918 21.6504 1.95449 21.3194 1.90406C21.1111 1.87222 20.9167 1.85526 20.7374 1.84267C20.453 1.82296 20.2049 1.81345 19.9872 1.77218C19.5807 1.69533 19.2167 1.67604 18.9013 1.66806C18.5188 1.65831 18.2027 1.66394 17.9263 1.60977C17.8844 1.60158 17.8364 1.59137 17.7822 1.58012C17.5819 1.53869 17.2983 1.48255 16.912 1.47249C16.7483 1.46831 16.5677 1.47267 16.3709 1.49081C16.1368 1.51248 15.9157 1.56057 15.7034 1.61181C15.3948 1.68649 15.0975 1.76774 14.7735 1.79152C14.7251 1.79508 14.6731 1.78896 14.6256 1.78357C14.5653 1.77672 14.5117 1.77126 14.4835 1.78793C14.4005 1.83683 14.2672 1.89861 14.1248 1.9683C14.02 2.01949 13.9112 2.07472 13.8108 2.13122C13 2.32183 12.2054 2.58004 11.4398 2.90125C11.0895 3.04815 10.7435 3.209 10.4056 3.38197C10.2075 3.41953 10.0075 3.46795 9.80397 3.53641C9.53745 3.62649 9.21583 3.79028 8.81262 4.0243C8.51644 4.19655 8.17608 4.40709 7.78394 4.66141C7.05487 5.13082 6.40602 5.75152 6.03493 6.18302C5.9559 6.27405 5.87783 6.36669 5.7958 6.46684C5.48913 6.84941 5.09809 7.32367 4.47594 8.29589C3.89296 9.21885 3.48177 10.049 3.20666 10.6854C3.06586 11.0112 2.96098 11.2849 2.88704 11.4984C2.7607 11.8624 2.61874 12.3147 2.50163 12.7737C2.31494 13.4924 2.19734 14.2305 2.15895 14.651C2.14472 14.8001 2.13322 14.9573 2.12373 15.1276C2.1004 15.5643 2.08627 16.0839 2.10357 16.7827C2.10499 16.837 2.10664 16.8923 2.10855 16.9486C2.13959 17.7663 2.18074 18.2716 2.22148 18.7988C2.23904 19.0118 2.2244 19.2065 2.2129 19.4079C2.19688 19.6925 2.18678 19.9958 2.30046 20.3755C2.32706 20.464 2.36162 20.5565 2.39905 20.6535C2.46769 20.8314 2.54514 21.021 2.59743 21.2228C2.61573 21.2935 2.62365 21.3586 2.63176 21.4223C2.6407 21.4923 2.64996 21.5611 2.67416 21.6344C2.76432 21.9076 2.86614 22.1699 2.96181 22.3997C3.08482 22.6957 3.19854 22.9411 3.25903 23.097C3.36672 23.3749 3.52855 23.6613 3.70089 23.942C3.83294 24.1575 3.97148 24.3707 4.09739 24.5818C4.45553 25.1868 5.03973 25.9664 5.73975 26.6713C6.00412 26.9379 6.20151 27.1871 6.46852 27.4984C6.63494 27.6915 6.8288 27.9084 7.08924 28.1584C7.23707 28.3 7.38676 28.3914 7.52557 28.4736C7.65363 28.5494 7.77286 28.6175 7.87753 28.7109C7.97003 28.7932 8.00791 28.873 8.04468 28.9491C8.0856 29.0336 8.12509 29.1135 8.23727 29.1823C8.29695 29.2189 8.37871 29.2501 8.47607 29.2859C8.51454 29.3001 8.55556 29.3151 8.5986 29.3313C8.592 29.3371 8.58734 29.3431 8.58414 29.3479C8.56151 29.3815 8.66102 29.4734 8.76074 29.5618C8.80051 29.5972 8.84042 29.6321 8.87195 29.6629C8.98787 29.7769 9.24264 29.937 9.44404 30.048C9.52908 30.0952 9.6003 30.1489 9.68389 30.2107C9.75809 30.2655 9.8423 30.3269 9.95567 30.3946C10.0203 30.4332 10.0667 30.4696 10.1052 30.4997C10.133 30.5215 10.1568 30.5399 10.1807 30.5534C10.2014 30.5651 10.2237 30.563 10.2487 30.5606C10.2667 30.5589 10.2863 30.557 10.3077 30.5598C10.3588 30.5667 10.4178 30.5893 10.4557 30.6127C10.4732 30.6235 10.4859 30.6344 10.4986 30.6453C10.5134 30.6579 10.528 30.6705 10.5506 30.6828C10.6541 30.7396 10.7643 30.7741 10.879 30.8085C11.0055 30.8465 11.1361 30.8839 11.2725 30.9509C11.3154 30.972 11.3595 30.9984 11.4025 31.0239C11.4475 31.0505 11.4914 31.0761 11.5306 31.0932C11.6901 31.1628 11.8524 31.1897 12.0023 31.2125C12.1019 31.2277 12.1959 31.241 12.2797 31.2638C12.4339 31.3056 12.5249 31.2962 12.5922 31.2895C12.6271 31.286 12.6555 31.2829 12.683 31.2875C12.7071 31.2955 12.7315 31.3037 12.7554 31.3119C12.7769 31.3207 12.7992 31.3297 12.8211 31.335C12.8227 31.3354 12.8244 31.3357 12.826 31.3361C12.9596 31.3823 13.092 31.4297 13.2223 31.4746C13.5156 31.5756 13.8134 31.668 14.1344 31.7121C14.2038 31.7217 14.2766 31.72 14.3505 31.7178C14.4411 31.715 14.5338 31.7114 14.6249 31.7266C14.8408 31.7625 15.0578 31.8146 15.2743 31.8613C15.5978 31.9314 15.9201 31.9893 16.2191 31.9649C16.3173 31.9568 16.4134 31.9395 16.5095 31.9211C16.5631 31.9109 16.6169 31.9003 16.6711 31.8909C16.6594 31.9097 16.653 31.9275 16.647 31.9441C16.6346 31.9782 16.624 32.0075 16.5711 32.0314C16.4463 32.0878 16.3026 32.1636 16.3158 32.2234C16.3195 32.2396 16.3154 32.2574 16.3109 32.2753C16.2998 32.3201 16.288 32.3662 16.4045 32.391C16.4828 32.4079 16.6863 32.4448 16.8168 32.4106C16.8452 32.4033 16.8625 32.3884 16.8817 32.3718C16.8909 32.3639 16.9005 32.3555 16.912 32.3474C16.9438 32.325 16.9896 32.3045 17.0792 32.2975C17.0998 32.2959 17.1221 32.2944 17.1452 32.2929C17.2373 32.287 17.34 32.2791 17.3776 32.254C17.4209 32.225 17.4103 32.1937 17.3983 32.1571C17.3825 32.1095 17.3645 32.0531 17.4555 31.9811C17.4735 31.9669 17.5086 31.9609 17.535 31.9563C17.5536 31.9531 17.5678 31.9505 17.5691 31.9463C17.5705 31.9416 17.5641 31.932 17.556 31.92C17.5273 31.8773 17.4786 31.8037 17.6706 31.7914C17.7227 31.788 17.7832 31.7883 17.8371 31.7883C17.9166 31.7883 17.9825 31.7876 17.9904 31.7745C17.9933 31.7696 17.9953 31.7643 17.9969 31.7589C18.0598 31.7559 18.1226 31.7525 18.1853 31.7488C18.267 31.7568 18.3787 31.7456 18.5198 31.729C18.554 31.7249 18.59 31.7206 18.6274 31.7161C18.7515 31.7052 18.8752 31.6926 18.9984 31.6787C19.0967 31.6715 19.201 31.6664 19.3138 31.6649C19.539 31.6619 19.7391 31.6799 19.9358 31.6941C20.0186 31.7 20.1019 31.7051 20.1854 31.7075C20.155 31.7167 20.1277 31.7255 20.107 31.734C19.9651 31.7922 19.917 31.8565 19.8716 31.9163C19.8415 31.9559 19.8129 31.9933 19.7592 32.0238C19.6607 32.0796 19.6786 32.12 19.6921 32.1502C19.6991 32.1658 19.7046 32.1786 19.6918 32.1891C19.6816 32.1975 19.6557 32.2052 19.629 32.2131C19.6057 32.2199 19.5816 32.227 19.5667 32.2348C19.3859 32.3293 19.4485 32.3559 19.542 32.3947C19.5934 32.4161 19.6538 32.4408 19.687 32.4826C19.7171 32.5278 19.7126 32.5436 19.6136 32.5806C19.6975 32.5913 19.7815 32.6013 19.8657 32.6107C19.8967 32.6033 19.9176 32.5838 19.946 32.5524C19.9968 32.4965 20.1853 32.4422 20.3326 32.3965C20.4007 32.3755 20.4597 32.3567 20.4921 32.3421C20.6638 32.2641 20.5989 32.2257 20.543 32.1922C20.5121 32.1737 20.4837 32.1565 20.4977 32.1349C20.5036 32.1257 20.491 32.1209 20.4782 32.1159C20.4683 32.1121 20.4582 32.1082 20.4564 32.1022C20.444 32.0585 20.5411 32.0016 20.6299 31.9477C20.6808 31.9168 20.7289 31.887 20.7534 31.8621C20.7608 31.8546 20.7664 31.8473 20.7716 31.8404C20.7792 31.8302 20.7865 31.8205 20.7996 31.8104C20.8292 31.7874 20.8953 31.7599 20.9672 31.7291C21.0041 31.7134 21.0425 31.6968 21.0783 31.6796C21.1247 31.6574 21.1374 31.6351 21.1507 31.6119C21.1601 31.5954 21.17 31.5784 21.192 31.5603C21.2317 31.5278 21.3208 31.4939 21.4031 31.4616C21.4389 31.4476 21.4734 31.4338 21.5023 31.4208C21.514 31.4155 21.519 31.4107 21.519 31.4063C21.6531 31.3491 21.7798 31.2919 21.9019 31.2348C22.5137 30.9447 23.0241 30.6745 23.8153 30.3248C23.9648 30.2579 24.1188 30.1743 24.271 30.0821C24.7761 29.8223 25.2677 29.5343 25.7429 29.2193C25.8585 29.1872 25.9907 29.1338 26.1382 29.0564C26.4154 28.9108 26.6722 28.7207 26.9661 28.4851C27.1833 28.3106 27.4206 28.1112 27.7001 27.8793C28.1691 27.4891 28.6267 27.0544 29.0872 26.5136C29.5476 25.9764 30.0169 25.3134 30.3152 24.8226C30.4788 24.5566 30.6716 24.287 30.8437 24.0302C31.0865 23.6688 31.2887 23.3304 31.3269 23.0874C31.3392 23.0099 31.3364 22.9288 31.3331 22.8504C31.3306 22.7947 31.3282 22.7399 31.3305 22.6884C31.3846 22.5708 31.4372 22.4522 31.4885 22.3328C31.6099 22.1318 31.773 21.8082 31.8326 21.4614C31.8782 21.3352 31.9219 21.2086 31.9631 21.0854C32.0524 20.8162 32.1329 20.5508 32.2071 20.2805C32.2314 20.1922 32.2551 20.1027 32.2781 20.0126C32.2784 20.0117 32.2786 20.0109 32.2788 20.01C32.3251 19.829 32.3682 19.6468 32.4078 19.4655C32.4248 19.3879 32.4411 19.31 32.457 19.2319C32.497 19.0342 32.5334 18.835 32.5658 18.637C32.5829 18.5325 32.5993 18.4253 32.6144 18.3201C32.639 18.1486 32.661 17.9747 32.6801 17.8007C32.7111 17.5177 32.7346 17.241 32.7509 16.9574C32.7537 16.9112 32.7608 16.8667 32.7714 16.834C32.7819 16.8012 32.795 16.7827 32.8086 16.7827C32.8221 16.7828 32.8353 16.8015 32.8456 16.8346C32.8559 16.8676 32.8624 16.9125 32.864 16.9591C32.8738 17.2451 32.8763 17.5257 32.8707 17.814C32.8672 17.9911 32.8609 18.1686 32.8517 18.3442C32.8461 18.452 32.839 18.5618 32.8312 18.6693C32.8163 18.8727 32.7972 19.0784 32.7741 19.283C32.765 19.3638 32.7553 19.4445 32.7449 19.525C32.7207 19.7136 32.6928 19.9036 32.6613 20.0931C32.6611 20.0943 32.6609 20.0954 32.6608 20.0966C32.6452 20.1899 32.6289 20.2829 32.612 20.3747C32.5598 20.6577 32.5005 20.9371 32.4315 21.2215C32.3961 21.3684 32.357 21.5199 32.3155 21.6713C32.2925 21.7554 32.2688 21.8392 32.245 21.9212C32.2319 21.966 32.2184 22.0114 32.2046 22.0569C31.8897 23.1026 31.4683 24.1129 30.9408 25.0812C30.4155 26.0461 29.7874 26.9615 29.0728 27.8041C28.3565 28.6487 27.5529 29.4213 26.6756 30.107C23.9416 32.2565 20.46 33.5128 16.912 33.5852C13.2514 33.6845 9.53073 32.5143 6.55682 30.2877C5.72004 29.6659 4.92113 28.9457 4.21272 28.1747C3.4966 27.3952 2.86489 26.5656 2.30294 25.6625C2.13254 25.3885 1.96528 25.1017 1.80331 24.803Z" fill="var(--stroke-0, black)" style="fill:black;fill-opacity:1;"/>
</g>
</svg>
