<svg width="158" height="4" viewBox="0 0 158 4" fill="none" xmlns="http://www.w3.org/2000/svg">
<path d="M149.16 1.87525C149.441 2.04134 149.87 1.77499 149.941 1.7286C150.227 1.55252 150.379 1.70082 150.598 1.62962C150.815 1.55842 150.487 1.47888 150.742 1.43364C151.274 1.33999 151.979 1.34594 152.515 1.32882C152.722 1.32304 152.586 1.47832 152.614 1.48245C153.088 1.5111 153.527 1.33607 153.786 1.63579C154.063 0.833787 154.063 1.70489 154.703 1.52408C154.753 1.50941 154.806 1.13212 154.606 1.08405C154.396 1.03662 154.125 1.16226 153.843 1.08441C153.784 1.06502 153.41 0.726775 153.352 0.705142C152.965 0.54841 152.921 1.11002 152.9 1.14137C152.656 1.47931 152.222 1.10929 152.096 1.08563C151.553 0.976907 151.073 1.06417 150.644 0.985831C150.35 0.935355 150.312 0.568563 150.073 0.583186C149.326 0.631731 149.03 1.14833 148.315 0.713767C148.157 0.62101 148.308 0.217524 147.743 0.539843C147.711 0.560153 147.311 0.853552 147.065 0.673819C147.034 0.651135 147.033 0.534427 146.993 0.525055C146.723 0.464658 146.534 0.560196 146.257 0.518536C145.973 0.476916 145.623 0.413497 145.28 0.456565C145.074 0.482341 144.838 0.702778 144.741 0.757303C144.477 0.913564 144.182 0.663478 144.012 0.851189C143.84 1.03985 144.183 1.32134 143.727 1.44629C143.707 1.14249 143.669 0.830512 143.641 0.525055C142.699 0.544003 141.732 0.650606 140.757 0.644281C140.634 0.643206 140.758 0.478877 140.626 0.473285C140.067 0.451347 139.625 0.570432 139.045 0.527862C138.589 0.494283 138.128 0.324225 137.673 0.283372C137.405 0.632882 136.687 0.519758 136.214 0.554203C136.046 0.566187 136.057 0.658664 135.937 0.689722C135.479 0.804359 135.691 0.495339 135.565 0.44766C135.019 0.244224 134.971 0.940053 134.317 0.926524C134.285 0.926021 133.876 0.557639 133.819 0.534825C133.459 0.386044 133.76 0.663581 133.535 0.692107C133.121 0.744236 132.831 0.834864 132.33 0.728614C132.177 0.697043 131.847 0.467564 131.576 0.64754C131.54 0.671567 131.56 0.793382 131.531 0.800672C131.009 0.922547 130.991 0.53741 130.687 0.408303C130.383 0.279711 129.906 0.546948 129.808 0.624117C129.552 0.823439 130.005 0.708228 130.018 0.727622C130.159 0.927273 129.917 0.925757 129.674 0.935034C129.638 0.936466 129.603 0.938182 129.569 0.940949C129.534 1.31848 129.177 1.29727 129.304 0.960654C129.319 0.923934 129.517 0.958194 129.569 0.940949C129.344 0.571321 128.951 0.525213 128.511 0.873241C128.304 1.03635 128.503 1.22511 127.868 1.15835C127.578 1.12807 127.689 0.867416 127.432 0.797521C126.838 0.638263 126.125 0.882947 125.522 0.846865C125.306 0.833744 125.516 0.690782 125.368 0.67675C124.977 0.639509 124.616 0.747489 124.228 0.694209C124.193 0.689189 124.278 0.540047 124.158 0.53854C123.25 0.524295 122.437 0.622709 121.457 0.628383C121 0.630982 120.17 0.551104 119.683 0.569036C118.83 0.599292 117.815 0.818573 117.098 0.767897C116.631 0.735465 116.732 0.586332 116.531 0.485321C116.144 0.290094 115.445 0.642882 115.361 0.698373C115.356 0.700193 115.759 0.734657 115.543 0.811726C115.42 0.970788 115.366 0.700196 115.361 0.698373C115.302 0.7338 114.506 0.770495 114.346 0.742398C114.26 0.726715 114.308 0.585704 114.263 0.580375C113.191 0.456711 112.101 0.422611 111.024 0.491107C111.005 0.494002 111.034 0.652504 110.989 0.657571C110.36 0.729245 109.953 0.536686 109.427 0.423129C108.899 0.309715 108.501 0.348648 108.193 0.620061C107.803 0.586767 107.24 0.708068 106.915 0.781489C106.591 0.854691 106.543 0.549183 106.515 0.541467C105.612 0.348799 105.116 0.526283 104.192 0.555517C103.755 0.569919 102.881 0.526591 102.402 0.493866C102.029 0.467477 101.804 0.539557 101.46 0.494115C101.414 0.487047 101.46 0.351556 101.446 0.346076C101.062 0.183104 101.247 0.51715 101.168 0.577414C100.88 0.795276 100.702 0.911287 100.207 0.809973C100.093 0.786759 99.7587 0.30547 99.5498 0.277655C99.2783 0.242449 99.3807 0.415213 99.096 0.373877C99.0721 0.369659 99.076 0.26392 98.9015 0.268809C98.0973 0.290609 97.2157 0.353707 96.3713 0.344423C96.256 0.343562 96.4034 0.174711 96.2368 0.170646C95.4503 0.151899 94.6039 0.159828 93.8441 0.240109C93.6577 0.260361 93.7741 0.377829 93.7344 0.413303C93.486 0.625994 93.132 0.318768 93.0729 0.312115C91.6738 0.165801 90.6209 0.447183 89.1992 0.3161C89.122 0.308398 88.5267 -0.0216881 88.2609 0.262457C88.2427 0.281376 87.9817 0.571763 87.7501 0.37353C87.7357 0.361121 87.8981 0.211551 87.6137 0.227188C87.3292 0.242763 86.8707 0.143117 86.4792 0.307968C86.3552 0.359912 86.0625 0.650244 85.6918 0.41967C85.6659 0.401912 85.0943 -0.117286 84.8906 0.242624C84.8578 0.302003 84.8918 0.683851 84.4504 0.488837C84.3668 0.450954 84.5189 0.365607 84.2971 0.31283C83.957 0.231455 83.5063 0.334121 83.0876 0.164824C83.0146 0.134832 82.703 -0.12348 82.4538 0.0733437C82.4157 0.104692 82.489 0.23068 82.3577 0.245047C81.7316 0.31417 81.074 0.230291 80.4392 0.319155C80.2146 0.350493 80.3296 0.556044 80.0955 0.611578C79.8609 0.666976 79.3881 0.72048 79.1422 0.626905C78.8964 0.533078 79.1639 0.204568 78.796 0.178662C77.1963 0.0664659 75.6085 0.260324 74.0127 0.290154C73.7762 0.294548 73.9724 0.1777 73.6233 0.175799C72.3308 0.16842 70.1167 0.0602938 68.9933 0.310842C68.0976 0.511504 69.225 0.662219 68.5405 0.74418C68.2106 0.783137 67.8538 0.403548 67.7738 0.390911C66.9957 0.269639 66.4585 0.438943 65.7537 0.387729C65.6092 0.376941 65.7507 0.222225 65.6279 0.214597C65.2062 0.18816 64.7632 0.257883 64.3616 0.24561C64.1819 0.239625 64.2147 0.121172 64.0494 0.130308C63.6532 0.151099 63.3027 0.201607 62.9178 0.312615C62.885 0.323902 63.1194 0.469543 62.8272 0.475316C62.3492 0.484144 61.757 0.593549 61.21 0.481409C61.0478 0.447631 61.0405 0.177643 60.6926 0.364055C60.6196 0.403044 60.7123 0.727643 60.3068 0.447949C60.2376 0.401407 59.5614 0.0244081 59.225 0.267774C59.1361 0.331891 58.909 0.596984 58.713 0.555775C58.6865 0.549151 58.7924 0.404043 58.6305 0.389812C58.0581 0.342951 57.46 0.359033 56.8765 0.31408C56.7207 0.301787 56.9524 0.151731 56.7203 0.138183C56.0859 0.100746 55.2787 0.139304 54.6504 0.186715C54.4195 0.204612 54.5792 0.328949 54.5624 0.342475C54.2918 0.562247 54.1316 0.265931 54.0419 0.248689C53.4846 0.145554 53.0622 0.284458 52.5526 0.248022C52.4119 0.238312 52.5109 0.0971122 52.4829 0.0845092C52.1882 -0.0384928 52.408 0.215656 52.2211 0.243874C51.6968 0.323588 51.1149 0.312204 50.59 0.294468C50.3974 0.287708 50.6137 0.123427 50.4408 0.11929C49.4243 0.0916954 48.3489 0.108331 47.3478 0.199455C47.1602 0.217036 47.2782 0.34276 47.239 0.371636C46.9688 0.573713 46.5743 0.299181 46.4838 0.272996C46.0703 0.153503 45.919 0.264452 45.5445 0.243823C43.7409 0.1411 41.5297 0.216711 39.8537 0.263376C37.6386 0.323471 35.9249 0.44429 33.8444 0.414134C33.7134 0.412375 33.8452 0.244165 33.7323 0.240489C32.2152 0.200731 30.7911 0.26806 29.2821 0.220226C29.161 0.216507 29.3353 0.056909 29.1407 0.04573C28.7385 0.0216978 28.2549 0.0303037 27.8286 0.0813952C27.6269 0.106018 27.8972 0.242185 27.6948 0.264289C27.2223 0.315798 26.7237 0.328142 26.2548 0.302811C26.0557 0.29167 26.3556 0.12791 26.0976 0.125974C25.9861 0.125002 25.8747 0.12388 25.7643 0.122876C24.0443 0.108079 22.4133 0.0968347 20.7106 0.295353C20.584 0.309912 20.4725 0.64156 20.2072 0.578144C20.1872 0.486322 20.189 0.378245 20.1803 0.280114C17.5648 0.228403 14.9641 0.344198 12.3595 0.363161C12.2518 0.363527 12.4437 0.188802 12.225 0.189384C10.963 0.192558 9.78348 0.14432 8.51046 0.319313C8.38978 0.336433 8.45221 0.645246 8.07143 0.598706C8.00011 0.590131 7.44772 0.549406 7.3136 0.482574C7.29272 0.472476 7.39944 0.327481 7.21183 0.3232C6.16833 0.301775 5.06084 0.336061 4.02296 0.424564C3.86175 0.439123 4.03243 0.591727 3.91828 0.603429C3.07281 0.685207 2.12685 0.569329 1.32275 0.708863C0.775989 0.802889 0.991783 1.06845 0.690367 1.32975C0.657558 1.36648 0.311812 1.37269 0.297012 1.52436C0.252479 1.90645 0.413966 2.32495 0.34928 2.73223C0.348437 2.7761 0.222388 2.77504 0.143255 2.78884C0.122225 2.79228 0.10539 2.79625 0.090998 2.80253C0.0616563 2.80809 0.124957 2.81946 0 2.8255C0.094201 2.85259 0.0757173 2.88437 0.150822 2.93808C0.170285 2.95268 0.499922 3.02245 0.575931 3.09408C0.63486 3.14381 0.530317 3.29842 0.647577 3.36209C0.756088 3.42567 0.880805 3.29557 1.07885 3.3703C1.25933 3.44598 1.18885 3.62277 1.55919 3.64346C2.44832 3.69023 3.59373 3.63857 4.47251 3.56907C4.76138 3.54747 4.61015 3.45201 4.79672 3.43277C5.15803 3.39534 5.52159 3.44254 5.87723 3.39799C5.99895 3.38264 5.84705 3.2311 5.97504 3.21841C6.681 3.151 7.33954 3.18887 8.04253 3.15629C11.5342 2.99549 14.9588 2.9372 18.4794 2.86637C19.6549 2.84314 21.0847 2.70471 22.2566 2.76438C22.3968 2.77149 22.3138 2.90466 22.3405 2.91564C22.7606 3.08342 22.6211 2.81521 22.8982 2.77934C23.8465 2.65904 24.8006 2.63119 25.7648 2.65687C25.9233 2.66143 26.0804 2.66771 26.2346 2.67536C26.6721 2.69743 26.2331 2.96196 26.6756 2.81318C26.705 2.80196 26.5949 2.66161 26.7153 2.64654C26.9888 2.61252 27.5159 2.63801 27.7348 2.62676C28.1547 2.60424 28.2306 2.60543 28.6095 2.60363C29.1327 2.59995 29.7666 2.52893 30.3484 2.56071C30.4717 2.56823 30.3082 2.71281 30.5056 2.73755C30.7097 2.76209 31.2184 2.75031 31.3892 2.71604C31.5608 2.68175 31.488 2.56729 31.5184 2.54114C31.7678 2.32085 32.3638 2.62595 32.4415 2.63347C33.8766 2.76142 35.0216 2.58662 36.3692 2.5864C37.3584 2.58663 38.4167 2.64366 39.384 2.63525C40.505 2.62467 41.4572 2.54543 42.5737 2.55828C42.6908 2.55947 42.5555 2.72976 42.6956 2.73156C44.1733 2.75053 45.7078 2.7316 47.1836 2.61554C47.3336 2.60375 47.1404 2.45348 47.2901 2.43269C48.2092 2.30904 49.6735 2.01319 50.2121 2.66484C50.8322 2.63897 51.5909 2.61225 52.1528 2.48044C52.5137 2.39558 52.1658 2.23191 52.6054 2.3012C52.704 2.31666 52.5762 2.46029 52.7242 2.47264C53.3473 2.52444 54.0321 2.47716 54.6552 2.55051C54.7817 2.56589 54.7477 2.69368 54.7836 2.7167C55.0857 2.90293 55.5895 2.59432 55.6997 2.57181C56.5309 2.40399 57.1325 2.46995 57.9092 2.46526C58.0888 2.46429 57.8764 2.63571 58.0497 2.64077C58.9513 2.66471 59.8803 2.6492 60.7561 2.57221C60.9513 2.55467 60.7723 2.40807 60.8656 2.39219C61.2769 2.32418 61.3688 2.60122 61.7644 2.54113C61.8469 2.52884 61.8014 2.40542 61.8154 2.38969C62.0535 2.17331 62.2618 2.4792 62.3233 2.48591C63.1038 2.57753 63.5885 2.25725 64.3363 2.30172C64.4256 2.30738 64.2249 2.46607 64.4756 2.47239C66.154 2.51472 67.9193 2.46949 69.5807 2.34098C69.8385 2.32117 69.6548 2.20289 69.6708 2.18807C69.9354 1.95824 70.1077 2.26548 70.1911 2.27698C70.8522 2.35962 71.4704 2.1013 71.9211 2.46698C74.7313 2.337 77.5241 2.53975 80.308 2.20823C80.3433 2.20439 80.2801 2.05337 80.3507 2.04636C81.2002 1.96037 81.038 2.19581 81.6014 2.48306C81.7433 2.55381 82.1705 2.20962 82.2116 2.18159C82.3502 2.08777 82.2073 1.8632 82.2527 1.84387C82.6377 1.70059 82.5767 2.44582 83.0962 2.44541C83.1108 2.44182 83.0443 2.30686 83.0875 2.29328C83.2228 2.25049 83.3575 2.30499 83.4898 2.25763C83.7926 2.14784 83.9005 1.785 84.3633 1.99512C84.4217 2.02328 84.3329 2.44597 84.7968 2.42543C84.983 2.4169 85.8016 2.42232 86.0309 2.39465C86.2601 2.36698 86.103 2.23111 86.1193 2.22519C86.7362 2.04428 86.5023 1.96982 86.8111 1.70273C87.1196 1.43709 87.0348 2.07051 87.1609 2.14107C87.2872 2.21141 87.739 2.06241 87.8498 2.01059C87.9603 1.95873 87.8222 1.87214 87.9207 1.84277C88.5736 1.65088 88.2087 2.15742 88.4249 2.2577C88.9359 2.49466 89.3329 2.02405 89.7991 1.97734C89.9249 1.96491 89.8227 2.07184 89.935 2.08169C90.3797 2.11917 90.6468 1.97263 91.1516 2.10629C91.2345 2.12808 91.6422 2.40978 91.9067 2.202C91.9437 2.17173 91.8373 2.05488 92.0272 2.02841C92.3118 1.98861 92.8237 1.96296 93.1286 2.00164C93.3536 2.03026 93.0963 2.22343 93.379 2.16325C93.5047 2.13628 93.2717 2.02373 93.508 1.98249C93.7432 1.94127 94.3432 1.94484 94.571 1.94837C94.7983 1.95204 94.6739 2.09913 94.6923 2.10897C94.8038 2.16528 95.2401 2.23472 95.2785 2.23449C97.2425 2.24919 99.0275 1.99917 100.937 2.07739C101.085 2.08332 100.987 2.23787 101.009 2.24079C101.519 2.30454 101.117 1.8943 101.472 1.75626C101.421 2.06951 101.631 2.01303 101.988 2.04664C102.159 2.063 102.069 2.18251 102.083 2.19651C102.337 2.38028 102.518 2.14214 102.564 2.09337C102.736 1.91461 102.923 2.125 103.039 2.00516C103.154 1.88615 102.887 1.71094 103.233 1.7125C103.331 1.82445 103.074 2.11797 103.337 2.16496C104.333 2.34271 106.158 2.10886 106.966 2.08323C107.761 2.05771 108.016 2.07776 108.475 2.03625C109.302 1.96131 108.997 2.18001 109.52 2.27839C110.044 2.3767 109.789 1.84246 109.863 1.727C109.937 1.612 110.018 1.72987 110.109 1.66693C110.201 1.60356 110.003 1.52584 110.218 1.50162C110.433 1.47745 111.017 1.67984 111.094 1.79996C111.254 2.0543 110.993 2.32235 111.555 2.22724C111.588 2.22159 111.483 2.08149 111.607 2.06699C112.574 1.95648 113.641 1.94649 114.617 1.84826C114.751 1.8343 114.63 1.67886 114.708 1.66889C115.527 1.56671 115.228 1.83181 115.684 2.12375C115.58 1.73394 115.835 1.4944 116.466 1.49042C116.843 1.488 116.779 1.65793 117.023 1.7773C117.096 1.8133 117.362 1.69644 117.41 1.77643C117.568 2.0378 117.321 2.33152 117.961 2.21306C117.988 2.20708 117.899 2.06432 117.996 2.05538C118.618 1.99685 118.699 2.26978 119.39 2.30102C119.932 2.32549 120.881 2.15572 121.479 2.12669C121.458 1.68856 122.05 1.78697 122.285 2.08853C122.685 2.07491 123.113 2.09105 123.493 2.04801C123.623 2.03327 123.537 1.90607 123.553 1.8923C123.805 1.6767 123.975 1.96997 124.059 1.98176C124.979 2.09078 125.76 1.86494 126.627 2.07965C126.658 2.08884 126.71 2.39127 126.94 2.16853C126.953 2.15264 126.67 2.01549 127.074 2.00321C127.5 1.99088 128.296 1.82432 128.866 1.96318C129.005 1.99678 129.354 2.24215 129.629 2.04787C129.665 2.02141 129.625 1.93459 129.677 1.88577C129.858 1.73115 129.959 2.03708 130.169 1.77543C130.378 1.51301 130.816 1.31525 131.391 1.49295C131.41 1.49811 131.548 1.74105 131.727 1.73637C132.005 1.7287 132.434 1.67655 132.743 1.67666C132.89 1.67692 132.798 1.8265 132.822 1.83102C133.814 1.91115 134.488 1.77304 135.558 1.70859C135.754 1.69664 136.288 1.89974 136.665 1.73438C137.082 1.55309 136.656 0.811331 137.604 0.982729C137.988 1.05128 138.444 1.99291 139.15 1.49921C140.468 1.61154 141.671 1.35297 143.028 1.5146C143.088 1.52177 143.278 1.78336 143.415 1.77859C143.618 1.77094 143.724 1.64655 143.881 1.63693C144.534 1.59401 145.05 1.69452 145.686 1.67168C145.915 1.66329 145.835 1.53696 146.104 1.52694C146.374 1.51709 146.542 1.68279 146.926 1.59767C147.209 1.53275 147.481 1.18745 147.838 1.14314C147.856 1.48062 148.126 1.471 148.573 1.5543C148.659 1.57048 148.569 1.68871 148.61 1.70243C148.778 1.76071 148.912 1.66204 149.084 1.72565C149.123 1.74152 149.127 1.85613 149.16 1.87525ZM1.785 1.41074C1.65995 1.23904 2.12878 1.22492 2.03002 1.40348C2.02342 1.41062 1.79056 1.41766 1.785 1.41074ZM105.451 1.11015C105.154 1.25782 105.11 0.717364 105.432 0.846058C105.447 0.854444 105.467 1.1029 105.451 1.11015ZM79.6643 2.06142C79.6502 2.07667 79.0919 2.09081 79.0736 2.0768C78.7832 1.79668 79.9116 1.7663 79.6643 2.06142ZM89.8107 1.71305C89.806 1.72112 89.6322 1.72903 89.6356 1.68348C89.6473 1.53684 89.8889 1.57753 89.8107 1.71305ZM105.031 1.76706C104.901 1.59573 105.382 1.58082 105.281 1.75958C105.275 1.76673 105.036 1.77413 105.031 1.76706ZM141.737 1.05793C141.355 1.29919 141.081 0.950661 141.356 0.764407C141.63 0.578571 141.853 0.984737 141.737 1.05793ZM145.805 1.19614C145.344 1.38861 145.262 0.623022 145.761 0.772696C145.79 0.781162 145.832 1.18494 145.805 1.19614ZM149.834 1.33584C149.699 1.44163 149.283 1.32801 149.459 1.19651C149.604 1.09073 150.004 1.20429 149.834 1.33584ZM156.192 1.75441C156.391 1.72805 155.746 1.58086 155.994 1.50777C156.45 1.358 156.791 1.80116 157.306 1.38319C157.342 1.34199 157.163 1.32347 157.003 1.25581C156.846 1.19113 156.691 1.11461 156.656 1.12032C155.675 1.24368 155.077 1.88668 156.192 1.75441Z" fill="black" style="fill:black;fill-opacity:1;"/>
</svg>
