<svg preserveAspectRatio="none" width="100%" height="100%" overflow="visible" style="display: block;" viewBox="0 0 27.1372 5.41513" fill="none" xmlns="http://www.w3.org/2000/svg">
<path id="Vector 2" d="M0.333072 3.74555C0.479964 3.692 0.679935 3.68326 0.836503 3.69304C0.887885 3.69556 0.871734 3.75219 0.905454 3.75666C0.970656 3.76549 1.02783 3.72862 1.09278 3.74148C1.11509 3.74586 1.10433 3.83283 1.12745 3.83552C1.25437 3.84965 1.36255 3.80804 1.4854 3.80343C2.09566 3.77994 2.6844 3.70325 3.29054 3.63018C3.49296 3.60554 3.75013 3.63523 3.94353 3.56584C3.96667 3.55755 3.93915 3.48804 3.94259 3.48126C3.99732 3.37705 4.00042 3.52706 4.05115 3.53771C4.22515 3.57292 4.39064 3.55735 4.55253 3.51265C4.57864 3.50526 4.60431 3.49704 4.62939 3.48815C4.70163 3.46237 4.60037 3.33289 4.69053 3.39942C4.69678 3.40388 4.69186 3.484 4.71396 3.48837C4.76392 3.49816 4.85124 3.4679 4.88956 3.46711C4.96324 3.46602 4.97608 3.46286 5.04074 3.45184C5.13012 3.43728 5.2449 3.4555 5.34073 3.41988C5.36114 3.41205 5.31866 3.33869 5.34995 3.3191C5.3822 3.29936 5.47012 3.29004 5.50253 3.30321C5.53516 3.31635 5.5341 3.38036 5.54188 3.39355C5.60633 3.50514 5.67727 3.32107 5.68974 3.31454C5.92116 3.19984 6.13356 3.25812 6.36288 3.21561C6.53132 3.18418 6.70563 3.11993 6.8711 3.09389C7.06307 3.06413 7.23292 3.07688 7.42169 3.03461C7.44152 3.03026 7.40146 2.94217 7.42511 2.93677C7.6747 2.87976 7.93792 2.8418 8.20065 2.858C8.22735 2.85965 8.20932 2.94677 8.23689 2.95326C8.40558 2.99116 8.68429 3.10547 8.71112 2.73566C8.81924 2.73007 8.95098 2.72063 9.05972 2.77425C9.12968 2.80877 9.08656 2.90797 9.15458 2.85654C9.16984 2.84507 9.13381 2.77172 9.15777 2.76036C9.25869 2.71259 9.37989 2.71637 9.47868 2.65697C9.49874 2.6447 9.48016 2.57647 9.48399 2.56286C9.51688 2.45236 9.63338 2.60374 9.65437 2.61244C9.81257 2.67706 9.90837 2.6227 10.0411 2.60071C10.0718 2.59566 10.0185 2.50918 10.0475 2.50097C10.1986 2.45954 10.3584 2.4386 10.5151 2.45267C10.5501 2.456 10.534 2.54091 10.5514 2.54656C10.6282 2.57052 10.6164 2.41787 10.6897 2.43792C10.7052 2.44196 10.7096 2.51132 10.7135 2.51831C10.7755 2.62796 10.7805 2.45564 10.7903 2.45007C10.9141 2.37576 11.0284 2.53383 11.1513 2.48607C11.1659 2.48019 11.1159 2.40053 11.1581 2.38924C11.4395 2.31339 11.7445 2.28221 12.0399 2.29944C12.0859 2.30201 12.0662 2.37227 12.0704 2.37972C12.1381 2.49584 12.1371 2.32393 12.1502 2.31507C12.2546 2.24942 12.3854 2.36996 12.426 2.1576C12.9172 2.13945 13.3727 1.94175 13.8791 2.03374C13.8855 2.03471 13.8896 2.11873 13.9023 2.12031C14.0554 2.1402 14.0046 2.01769 14.0723 1.84436C14.0894 1.80083 14.1969 1.97587 14.2059 1.9885C14.2388 2.03509 14.2363 2.16161 14.246 2.17003C14.3256 2.23554 14.242 1.83372 14.3305 1.8176C14.3333 1.81778 14.3351 1.89419 14.3439 1.90024C14.3712 1.91927 14.3887 1.88561 14.4159 1.90712C14.4782 1.95699 14.532 2.14986 14.5903 2.02146C14.5976 2.00483 14.5409 1.77858 14.622 1.77512C14.6544 1.77393 14.7934 1.74482 14.8351 1.75263C14.8769 1.76041 14.8633 1.83905 14.8667 1.84175C14.9895 1.92039 14.9569 1.96803 15.0356 2.10304C15.1141 2.23751 15.0377 1.8968 15.0523 1.85462C15.0669 1.81253 15.1584 1.87921 15.1823 1.9038C15.2062 1.92841 15.1911 1.97955 15.2108 1.99238C15.3407 2.0759 15.2291 1.81314 15.2561 1.75203C15.3199 1.60733 15.4334 1.84979 15.5174 1.86047C15.5401 1.86334 15.5121 1.8085 15.5303 1.79964C15.6024 1.76531 15.6622 1.83658 15.7351 1.74829C15.7471 1.73389 15.789 1.56834 15.8543 1.67261C15.8636 1.68766 15.8567 1.75439 15.8917 1.76278C15.9441 1.77542 16.0338 1.77365 16.0819 1.74314C16.1174 1.72057 16.0548 1.62388 16.1088 1.64771C16.1329 1.65838 16.1041 1.72667 16.1483 1.7416C16.1924 1.75657 16.2941 1.73558 16.3326 1.72652C16.3709 1.71743 16.3355 1.6419 16.3377 1.636C16.3512 1.60199 16.4187 1.55045 16.4252 1.54938C16.7582 1.47984 17.0863 1.55931 17.4039 1.4572C17.4287 1.44933 17.3969 1.36867 17.4005 1.3666C17.4811 1.31612 17.4522 1.55072 17.526 1.61442C17.4871 1.44619 17.5284 1.47057 17.586 1.44114C17.6137 1.42682 17.586 1.36391 17.5875 1.35671C17.6131 1.24915 17.6668 1.37267 17.6794 1.39765C17.7259 1.48951 17.7374 1.36919 17.7687 1.43055C17.8 1.49142 17.7713 1.59497 17.8301 1.58327C17.8359 1.51955 17.7639 1.36849 17.8042 1.3348C17.9567 1.20733 18.2901 1.27689 18.43 1.26559C18.5678 1.25461 18.6092 1.23577 18.6913 1.24396C18.8394 1.25885 18.7666 1.15014 18.8464 1.08049C18.9263 1.01083 18.9338 1.30851 18.9576 1.36861C18.9811 1.42872 18.9836 1.36215 19.0052 1.39367C19.0268 1.42518 19.0005 1.4735 19.0394 1.47993C19.0784 1.48633 19.1586 1.35797 19.16 1.29052C19.163 1.14762 19.0929 1.01048 19.1979 1.04459C19.204 1.04665 19.1994 1.12605 19.2219 1.13006C19.3971 1.15989 19.5798 1.13173 19.7552 1.15468C19.7795 1.15793 19.7737 1.24638 19.788 1.24923C19.937 1.27921 19.861 1.14503 19.9112 0.972526C19.9303 1.18714 19.9964 1.30898 20.1041 1.29158C20.1687 1.28122 20.1415 1.19075 20.1718 1.11842C20.1809 1.09663 20.2372 1.15223 20.2378 1.10736C20.2402 0.960638 20.1703 0.80894 20.2904 0.853374C20.2957 0.855557 20.2939 0.935949 20.3113 0.937802C20.4226 0.950295 20.4111 0.799261 20.5257 0.760957C20.6158 0.730895 20.7934 0.79366 20.8978 0.790942C20.9357 1.02936 21.027 0.957645 21.039 0.786734C21.1084 0.781778 21.1799 0.760036 21.2485 0.771684C21.2721 0.775621 21.2692 0.847016 21.2733 0.853982C21.3362 0.96344 21.3379 0.798894 21.3512 0.790196C21.4984 0.702574 21.6519 0.801076 21.7797 0.657906C21.7843 0.652763 21.765 0.485947 21.8248 0.600046C21.8288 0.607936 21.7926 0.691393 21.8632 0.685506C21.9373 0.679036 22.0876 0.744989 22.1721 0.652131C22.1927 0.629739 22.2298 0.485551 22.2943 0.582657C22.2946 0.583024 22.2948 0.583418 22.295 0.583839C22.3034 0.598491 22.3043 0.645146 22.3179 0.669263C22.3629 0.748243 22.352 0.578235 22.4116 0.714322C22.4711 0.850412 22.5633 0.944458 22.6451 0.830329C22.6478 0.826967 22.6492 0.690588 22.6801 0.68767C22.7278 0.683396 22.8068 0.69884 22.8591 0.689437C22.8842 0.684862 22.8547 0.605162 22.8588 0.602942C23.0201 0.529334 23.1487 0.583902 23.3358 0.586714C23.3705 0.587331 23.4424 0.460712 23.5228 0.539083C23.6095 0.625084 23.6013 1.04089 23.7472 0.91926C23.8057 0.870618 23.8048 0.344905 23.9663 0.592428C24.1804 0.492058 24.4077 0.597191 24.6259 0.469347C24.6354 0.463704 24.6465 0.31558 24.6702 0.314174C24.7046 0.312474 24.7356 0.37652 24.7622 0.377242C24.8755 0.381773 24.9584 0.311668 25.0673 0.305984C25.107 0.303918 25.1028 0.375185 25.1493 0.3729C25.1946 0.370726 25.2147 0.274945 25.285 0.31073C25.3385 0.338035 25.4061 0.519498 25.4734 0.533224C25.4526 0.348342 25.4989 0.346339 25.5688 0.288432C25.5822 0.277221 25.5589 0.214808 25.5648 0.206188C25.5884 0.169742 25.6218 0.219812 25.6459 0.180417C25.6517 0.170954 25.6447 0.107809 25.649 0.0965124C25.6865 -0.00208342 25.7751 0.131828 25.7922 0.155016C25.8546 0.243249 25.869 0.158647 25.9107 0.191739C25.9517 0.224929 25.901 0.276887 25.9465 0.294936C26.046 0.331698 26.163 0.310696 26.2551 0.306817C26.2938 0.304738 26.2613 0.222094 26.2667 0.219832C26.3433 0.192616 26.427 0.278495 26.462 0.108074C26.535 0.542714 26.5069 0.0629312 26.625 0.149751C26.6337 0.15688 26.6417 0.363415 26.6119 0.393698C26.5813 0.423978 26.5316 0.360314 26.4875 0.409339C26.4745 0.420841 26.4274 0.616846 26.4195 0.629094C26.3588 0.724268 26.3337 0.416877 26.328 0.400193C26.2761 0.220166 26.2131 0.43422 26.196 0.450162C26.107 0.523806 26.0294 0.487743 25.9565 0.542567C25.9107 0.577914 25.927 0.779541 25.8868 0.777648C25.7577 0.771202 25.6722 0.497302 25.5831 0.75446C25.5627 0.809534 25.6176 1.02534 25.4991 0.86502C25.4903 0.855076 25.4039 0.705758 25.3755 0.810853C25.372 0.824088 25.3804 0.887939 25.3744 0.894178C25.3345 0.934648 25.2933 0.888322 25.2502 0.91884C25.2059 0.949529 25.1522 0.993751 25.0916 0.980033C25.0537 0.972038 24.9967 0.858811 24.9763 0.831983C24.9198 0.754407 24.8897 0.898787 24.8463 0.801423C24.8025 0.703621 24.8383 0.540521 24.7512 0.485696C24.772 0.651764 24.7896 0.822737 24.8088 0.989988C24.6485 1.00694 24.475 0.97778 24.3113 1.00988C24.2906 1.0141 24.3254 1.09984 24.3035 1.10665C24.2087 1.13541 24.1257 1.08318 24.0309 1.12359C23.9573 1.15528 23.8919 1.26181 23.8189 1.2975C23.7434 1.11549 23.6329 1.19865 23.5481 1.19439C23.5185 1.19296 23.5124 1.14216 23.4892 1.12894C23.4017 1.08039 23.4647 1.2417 23.4475 1.27141C23.3728 1.39842 23.3044 1.02149 23.1932 1.04897C23.1877 1.05023 23.1511 1.26292 23.1435 1.27704C23.0957 1.36875 23.1221 1.20852 23.0813 1.19984C23.0066 1.18403 22.9493 1.14395 22.8738 1.21687C22.851 1.23854 22.8143 1.37347 22.7525 1.28389C22.7443 1.27217 22.7367 1.20503 22.7312 1.20194C22.6315 1.15156 22.6633 1.36123 22.6234 1.44059C22.5835 1.51994 22.4783 1.38901 22.4546 1.35018C22.3931 1.24975 22.4804 1.29863 22.4809 1.28769C22.4871 1.16719 22.44 1.18503 22.395 1.18604C22.3916 1.18609 22.3882 1.18603 22.3848 1.18577C22.3445 0.981713 22.2857 1.00415 22.3381 1.18306C22.3439 1.20258 22.3746 1.17784 22.3848 1.18577C22.3802 1.39329 22.3178 1.43016 22.2112 1.25472C22.1611 1.17251 22.1778 1.0641 22.0759 1.11979C22.0294 1.14502 22.0722 1.283 22.0349 1.32882C21.948 1.4337 21.8047 1.32243 21.7055 1.36056C21.6698 1.37433 21.7189 1.44551 21.6949 1.45759C21.6318 1.48984 21.5608 1.44225 21.4994 1.48324C21.4939 1.48704 21.5221 1.56544 21.5019 1.56993C21.3489 1.60561 21.202 1.57739 21.0345 1.60462C20.9565 1.61731 20.8229 1.68615 20.7384 1.69149C20.5907 1.70142 20.3969 1.61387 20.28 1.66356C20.2035 1.69564 20.2349 1.77345 20.2102 1.83447C20.163 1.95263 20.0104 1.78216 19.9909 1.75505C19.9899 1.75421 20.0556 1.72317 20.0114 1.6881C19.9751 1.60535 19.9917 1.75453 19.9909 1.75505C19.9776 1.73766 19.8389 1.7429 19.8144 1.7631C19.8012 1.7741 19.8227 1.84924 19.8156 1.85353C19.6451 1.95386 19.4627 2.0058 19.273 2.00216C19.2695 2.00119 19.2594 1.91469 19.2513 1.91347C19.1374 1.89419 19.0866 2.0111 19.0081 2.08901C18.9289 2.16702 18.8575 2.15812 18.779 2.02039C18.7159 2.05059 18.6086 2.0025 18.5462 1.97285C18.4839 1.94319 18.5055 2.11124 18.5012 2.11539C18.3662 2.24798 18.2647 2.16753 18.1048 2.18054C18.029 2.18639 17.8845 2.23693 17.8061 2.26965C17.7452 2.29559 17.7001 2.26332 17.6459 2.29871C17.6386 2.30345 17.6598 2.37622 17.6579 2.37951C17.6082 2.47991 17.6074 2.29294 17.5881 2.26295C17.5181 2.15387 17.4766 2.09652 17.4022 2.16693C17.385 2.18308 17.3748 2.45432 17.3419 2.47592C17.2992 2.50353 17.3 2.40682 17.2555 2.43812C17.2517 2.44072 17.2628 2.49832 17.2325 2.50109C17.0936 2.51443 16.9375 2.5076 16.7947 2.53907C16.7752 2.54315 16.8167 2.63024 16.7888 2.63764C16.6568 2.67242 16.5121 2.6948 16.375 2.6751C16.3413 2.66996 16.3498 2.60226 16.3394 2.58446C16.2764 2.47685 16.2461 2.65503 16.2368 2.66C16.013 2.78311 15.8066 2.66381 15.5775 2.77942C15.5651 2.78602 15.496 2.98366 15.423 2.83794C15.4181 2.82826 15.3453 2.67883 15.3253 2.79355C15.324 2.80073 15.3664 2.87678 15.3165 2.87723C15.2665 2.87771 15.1983 2.94587 15.1155 2.86884C15.0894 2.8446 15.0111 2.69656 14.9706 2.8331C14.9681 2.84258 14.9217 3.14317 14.8517 2.95417C14.8403 2.92303 14.8088 2.71536 14.7528 2.83485C14.7421 2.85798 14.7765 2.89938 14.7439 2.93497C14.694 2.98978 14.6072 2.94829 14.5526 3.0532C14.5431 3.07174 14.5155 3.22155 14.4539 3.12277C14.4442 3.1073 14.4444 3.03603 14.4205 3.03236C14.3073 3.01458 14.2037 3.08096 14.087 3.05278C14.0456 3.04294 14.045 2.92788 13.9997 2.90522C13.9543 2.88258 13.8686 2.86841 13.836 2.92694C13.8034 2.9855 13.8813 3.15495 13.8212 3.18052C13.56 3.29159 13.2709 3.23633 12.9965 3.27041C12.9557 3.27545 13.0007 3.33296 12.9415 3.34497C12.7223 3.38965 12.3564 3.51779 12.1405 3.4175C11.9683 3.33706 12.1452 3.21973 12.0207 3.19691C11.9606 3.18614 11.9375 3.40379 11.9251 3.41276C11.8047 3.50295 11.6966 3.4281 11.5818 3.47804C11.5582 3.48837 11.5976 3.56768 11.5774 3.57555C11.5082 3.60316 11.4261 3.57952 11.359 3.59882C11.329 3.60768 11.3463 3.67059 11.3172 3.6708C11.2477 3.67204 11.1833 3.65602 11.1068 3.60805C11.0998 3.60369 11.1258 3.51675 11.0751 3.52293C10.9929 3.53323 10.8813 3.49251 10.7994 3.57058C10.7751 3.59399 10.8007 3.74034 10.723 3.65024C10.7067 3.63143 10.6904 3.45306 10.6492 3.61729C10.642 3.64463 10.5642 3.8702 10.4828 3.74885C10.4613 3.71693 10.3964 3.58039 10.3672 3.60906C10.3633 3.61349 10.3958 3.68867 10.3695 3.70139C10.2768 3.74482 10.1735 3.75506 10.0787 3.79782C10.0534 3.80939 10.1078 3.88339 10.0696 3.89805C9.96544 3.93833 9.82428 3.9428 9.7127 3.93696C9.67155 3.93465 9.68646 3.86238 9.68225 3.85558C9.61434 3.74493 9.6166 3.91067 9.60306 3.92283C9.51845 3.99634 9.43267 3.93402 9.34955 3.96991C9.32659 3.9796 9.35761 4.05314 9.3541 4.06085C9.31608 4.13684 9.32829 3.99233 9.29366 3.98299C9.19654 3.95639 9.09867 3.9807 9.01115 4.00688C8.97903 4.01661 9.03219 4.09872 9.00318 4.10642C8.83302 4.15346 8.6484 4.17855 8.46906 4.16084C8.4353 4.15733 8.44289 4.0852 8.43335 4.0708C8.36725 3.9699 8.32754 4.13137 8.31475 4.14841C8.25632 4.2262 8.21938 4.17043 8.15774 4.19343C7.86116 4.30605 7.4773 4.3352 7.18755 4.36292C6.80461 4.40044 6.50099 4.38905 6.15006 4.47118C6.12795 4.47627 6.16719 4.56316 6.14836 4.56872C5.89412 4.63825 5.64519 4.64735 5.39326 4.72098C5.37297 4.72679 5.41864 4.80759 5.38664 4.8198C5.32064 4.84554 5.23731 4.85606 5.15971 4.84188C5.1229 4.83494 5.15532 4.7524 5.11857 4.74692C5.03304 4.73399 4.94711 4.74348 4.86987 4.77203C4.83707 4.78436 4.90449 4.86318 4.86064 4.87232C4.84215 4.87629 4.82376 4.88027 4.80546 4.88422C4.5138 4.94676 4.23714 5.00473 3.92704 4.95109C3.90406 4.94721 3.85203 4.77134 3.81323 4.81406C3.81901 4.86447 3.83 4.92299 3.83833 4.97647C3.39842 5.08723 2.94442 5.10667 2.49935 5.17884C2.48079 5.18187 2.53121 5.27083 2.49379 5.27747C2.27879 5.31567 2.0827 5.37908 1.84865 5.32459C1.82644 5.31914 1.80623 5.14999 1.74613 5.18722C1.73507 5.19404 1.64494 5.23372 1.62876 5.27424C1.62629 5.28036 1.65878 5.35505 1.62722 5.36323C1.45187 5.40785 1.26007 5.42483 1.07466 5.40977C1.04578 5.40699 1.05957 5.31851 1.03898 5.31579C0.886927 5.29825 0.73757 5.39117 0.586896 5.34104C0.484596 5.30744 0.494712 5.15701 0.417301 5.02513C0.408092 5.0062 0.348701 5.01398 0.330881 4.93221C0.284602 4.72685 0.269996 4.49525 0.217783 4.2769C0.213085 4.25321 0.192112 4.25806 0.175778 4.2534C0.171325 4.2523 0.167549 4.25054 0.162606 4.24794C0.160898 4.24649 0.157126 4.24517 0.152273 4.24379C0.130033 4.25257 0.208694 4.20467 0 4.29145C0.220771 4.18462 0.13654 4.21437 0.161858 4.17242C0.164581 4.16393 0.214557 4.11521 0.220313 4.07387C0.225424 4.04508 0.191932 3.96477 0.205702 3.92657C0.217885 3.8887 0.25217 3.95488 0.278435 3.90814C0.301692 3.86144 0.271964 3.76851 0.333072 3.74555ZM18.2657 1.84065C18.2009 1.76958 18.2452 2.06404 18.2877 1.98421C18.2897 1.98 18.2691 1.84411 18.2657 1.84065ZM24.4429 0.755739C24.3583 0.635536 24.3407 0.833398 24.4026 0.926681C24.4641 1.01993 24.4684 0.792189 24.4429 0.755739ZM25.1236 0.562073C25.031 0.470172 25.0758 0.890116 25.1482 0.794148C25.1524 0.788715 25.129 0.567414 25.1236 0.562073ZM0.637655 4.94269C0.635808 4.93901 0.59499 4.94264 0.595195 4.94659C0.591134 5.04348 0.672355 5.03623 0.637655 4.94269ZM25.7977 0.372956C25.7683 0.318725 25.7058 0.392207 25.744 0.459322C25.7749 0.513259 25.8345 0.440347 25.7977 0.372956ZM15.5452 2.0031C15.5436 1.99888 15.5133 2.00027 15.5183 2.02485C15.5346 2.10397 15.5718 2.07413 15.5452 2.0031ZM26.9025 0.345339C26.844 0.295464 26.6705 -0.0662832 26.9281 0.0107074C26.9694 0.0266264 26.8131 0.101299 26.8611 0.142492C26.9008 0.179373 26.9412 0.146262 27.0069 0.143134C27.0697 0.131182 27.169 0.214413 27.1273 0.279403C27.1211 0.292333 27.0587 0.290086 26.9989 0.296965C26.9379 0.304394 26.9026 0.347692 26.9021 0.345693C26.9023 0.345574 26.9024 0.345456 26.9025 0.345339ZM18.1743 1.49371C18.1726 1.49002 18.1312 1.49355 18.1309 1.49757C18.1253 1.59453 18.2087 1.58747 18.1743 1.49371ZM13.7839 2.13369C13.7802 2.12584 13.6837 2.13534 13.6819 2.14351C13.6598 2.30456 13.8551 2.28581 13.7839 2.13369ZM20.9005 0.797013C20.9297 0.695543 20.9827 0.675123 21.0388 0.78665C20.9928 0.788084 20.9467 0.795027 20.9005 0.797013Z" fill="var(--stroke-0, black)" style="fill:black;fill-opacity:1;"/>
</svg>
