<svg preserveAspectRatio="none" width="100%" height="100%" overflow="visible" style="display: block;" viewBox="0 0 157.254 7.08976" fill="none" xmlns="http://www.w3.org/2000/svg">
<path id="Vector 2" d="M1.52704 3.93357C2.41382 3.85339 3.56019 3.86116 4.44106 3.89759C4.73107 3.90826 4.58311 4.00967 4.7707 4.02183C5.13316 4.04565 5.49424 3.98518 5.8513 4.01633C5.97393 4.02697 5.82733 4.18434 5.95628 4.192C6.66427 4.23283 7.32051 4.16974 8.02423 4.17589C11.5195 4.20534 14.9439 4.13519 18.4648 4.07365C19.6404 4.05268 21.0745 4.1373 22.2433 4.0336C22.3831 4.02124 22.2947 3.89117 22.3209 3.8792C22.7346 3.69558 22.6051 3.9696 22.8834 3.99504C23.8357 4.07966 24.7904 4.07112 25.7532 4.00919C25.9115 3.99867 26.068 3.98656 26.2218 3.97311C26.6582 3.93462 26.209 3.68643 26.6568 3.81847C26.688 3.82736 26.5814 3.97293 26.7029 3.98352C26.9776 4.00729 27.5042 3.96243 27.7231 3.96552C28.1436 3.97224 28.2189 3.96802 28.5979 3.95557C29.1208 3.93959 29.7561 3.9864 30.3364 3.93277C30.4602 3.92091 30.2904 3.78205 30.4877 3.75002C30.6908 3.71782 31.1993 3.71125 31.3711 3.7391C31.5439 3.76692 31.4751 3.88357 31.5065 3.90856C31.7638 4.11975 32.348 3.79235 32.4253 3.78192C33.8548 3.60005 35.0055 3.73152 36.3523 3.68108C37.3408 3.64368 38.3961 3.54707 39.3631 3.51912C40.4838 3.48755 41.4384 3.53085 42.5538 3.47603C42.6708 3.47044 42.5287 3.30502 42.6686 3.29796C44.1448 3.22345 45.679 3.18528 47.1583 3.24581C47.3087 3.25196 47.121 3.40875 47.2716 3.42384C48.1946 3.51287 49.6687 3.75425 50.1823 3.08281C50.803 3.08536 51.5619 3.08366 52.1284 3.19427C52.4928 3.26547 52.151 3.44134 52.5877 3.35556C52.6858 3.33642 52.5522 3.19838 52.6997 3.18048C53.3205 3.10522 54.0065 3.12639 54.6266 3.02965C54.7528 3.00964 54.7135 2.88298 54.7485 2.85862C55.0433 2.66092 55.5588 2.95075 55.6698 2.9691C56.5067 3.10559 57.1051 3.01768 57.8815 2.99317C58.0615 2.98756 57.8424 2.82355 58.0155 2.81198C58.9157 2.75416 59.8448 2.73475 60.7229 2.77879C60.9187 2.78898 60.7446 2.94196 60.8385 2.95433C61.2523 3.00704 61.3335 2.72721 61.7312 2.7724C61.8151 2.78157 61.7727 2.90861 61.7884 2.92181C62.0345 3.12909 62.2306 2.81536 62.2917 2.80634C63.0685 2.68532 63.5649 2.98707 64.3109 2.91435C64.4 2.90533 64.1928 2.75417 64.4436 2.73852C66.1191 2.63314 67.8844 2.61199 69.5495 2.67797C69.8084 2.68801 69.6285 2.81387 69.6452 2.82796C69.9184 3.04768 70.0789 2.73399 70.1618 2.71936C70.8195 2.61182 71.4473 2.84697 71.884 2.46437C74.6971 2.48863 77.48 2.18113 80.2744 2.40779C80.3099 2.4103 80.2521 2.564 80.3229 2.56836C81.1753 2.62244 81.0039 2.39308 81.5561 2.08482C81.6953 2.0074 82.139 2.33915 82.1781 2.36323C82.3205 2.45202 82.1845 2.6825 82.2317 2.69898C82.6219 2.8277 82.5321 2.08511 83.0513 2.066C83.0676 2.06665 83.0044 2.20623 83.0484 2.21828C83.1853 2.25615 83.3175 2.1968 83.4516 2.23918C83.7586 2.33737 83.8797 2.69539 84.3345 2.46794C84.3922 2.43847 84.2866 2.01923 84.7515 2.02233C84.9371 2.02391 85.7561 1.98693 85.9864 2.006C86.2165 2.02503 86.0641 2.1669 86.0807 2.1722C86.7043 2.32986 86.473 2.41297 86.7917 2.66831C87.1102 2.92266 87.0015 2.29241 87.1248 2.21716C87.2484 2.14209 87.7053 2.27427 87.8181 2.3219C87.9308 2.36955 87.7957 2.46107 87.8953 2.48674C88.5552 2.65409 88.1711 2.16196 88.3833 2.05361C88.8853 1.7971 89.2994 2.25243 89.7673 2.28159C89.8938 2.28945 89.7871 2.1862 89.899 2.17213C90.3422 2.11785 90.6146 2.25475 91.1143 2.10213C91.1963 2.07724 91.5928 1.78015 91.8649 1.97783C91.9037 2.00636 91.8009 2.12727 91.9922 2.14662C92.278 2.17569 92.7905 2.18281 93.0938 2.1327C93.3176 2.09564 93.0529 1.91207 93.3381 1.96177C93.4648 1.98399 93.2358 2.10522 93.4735 2.13755C93.71 2.16991 94.3095 2.14334 94.537 2.13125C94.7642 2.11907 94.6344 1.97726 94.6525 1.96674C94.7617 1.90627 95.1948 1.82003 95.2332 1.81883C97.1954 1.7303 98.9884 1.91284 100.893 1.76292C101.042 1.7514 100.937 1.60067 100.96 1.59732C101.467 1.51446 101.08 1.93901 101.44 2.0636C101.378 1.75236 101.59 1.80154 101.946 1.75443C102.117 1.73148 102.019 1.61361 102.034 1.60064C102.282 1.40742 102.471 1.63881 102.519 1.68579C102.697 1.85863 102.876 1.64051 102.997 1.75598C103.117 1.87055 102.856 2.05612 103.202 2.0415C103.295 1.92596 103.028 1.64227 103.289 1.58541C104.277 1.37034 106.111 1.53514 106.918 1.53038C107.714 1.52601 107.967 1.49633 108.427 1.52056C109.257 1.56447 108.944 1.35802 109.463 1.24004C109.984 1.12205 109.748 1.66571 109.827 1.77798C109.905 1.89025 109.981 1.76914 110.075 1.82906C110.169 1.88897 109.974 1.97411 110.189 1.99022C110.405 2.0063 110.983 1.78127 111.054 1.65844C111.204 1.3982 110.933 1.14022 111.499 1.21426C111.532 1.21869 111.432 1.36297 111.556 1.37281C112.527 1.44693 113.593 1.41615 114.572 1.47765C114.707 1.48629 114.592 1.64692 114.671 1.65373C115.493 1.72508 115.184 1.47186 115.629 1.16299C115.539 1.55645 115.803 1.786 116.433 1.76629C116.811 1.7546 116.74 1.58662 116.979 1.45811C117.051 1.41938 117.321 1.52703 117.366 1.44529C117.515 1.17803 117.257 0.893663 117.9 0.988056C117.928 0.992626 117.844 1.13901 117.941 1.14431C118.565 1.17946 118.636 0.902865 119.325 0.845745C119.866 0.80093 120.821 0.935024 121.418 0.941579C121.414 1.38054 122.002 1.25978 122.226 0.949513C122.626 0.948116 123.054 0.916328 123.434 0.945087C123.565 0.954851 123.484 1.08469 123.501 1.09784C123.76 1.30429 123.92 1.00448 124.003 0.99008C124.919 0.846562 125.707 1.04277 126.565 0.795643C126.596 0.786757 126.636 0.48058 126.874 0.695055C126.89 0.709874 126.609 0.858062 127.016 0.855015C127.441 0.851354 128.243 0.98771 128.807 0.827515C128.945 0.788898 129.284 0.530056 129.566 0.713955C129.604 0.73895 129.567 0.827617 129.621 0.874436C129.622 0.874574 129.622 0.874711 129.622 0.874848C129.808 1.02263 129.897 0.71239 130.117 0.966557C130.336 1.22096 130.781 1.40216 131.349 1.20275C131.367 1.19691 131.495 0.948479 131.674 0.946419C131.953 0.943591 132.383 0.980284 132.692 0.96855C132.84 0.962845 132.74 0.81449 132.766 0.810877C133.754 0.693522 134.433 0.806611 135.504 0.830834C135.7 0.835561 136.226 0.611952 136.61 0.763234C137.034 0.928716 136.635 1.68565 137.576 1.47859C137.957 1.39565 138.377 0.438085 139.101 0.904915C140.414 0.743021 141.627 0.956675 142.977 0.744102C143.036 0.734699 143.215 0.465931 143.352 0.465549C143.556 0.465483 143.667 0.585459 143.824 0.589055C144.478 0.607412 144.989 0.487656 145.626 0.48657C145.856 0.486224 145.78 0.615645 146.05 0.615433C146.32 0.615146 146.482 0.443069 146.868 0.513864C147.154 0.568084 147.438 0.903476 147.796 0.934327C147.802 0.596112 148.072 0.596138 148.516 0.496013C148.601 0.476618 148.506 0.361254 148.547 0.346014C148.713 0.281311 148.85 0.375515 149.019 0.30548C149.059 0.288683 149.058 0.173246 149.09 0.153006C149.365 -0.0235816 149.804 0.226158 149.876 0.269788C150.169 0.434982 150.315 0.281673 150.536 0.344615C150.757 0.407583 150.431 0.498947 150.687 0.53461C151.223 0.60824 151.926 0.576276 152.463 0.573208C152.672 0.57136 152.527 0.419524 152.557 0.415681C153.029 0.36925 153.474 0.527958 153.722 0.218725C154.029 1.00979 153.997 0.138241 154.643 0.295033C154.693 0.307819 154.76 0.682893 154.563 0.73842C154.354 0.793997 154.079 0.678278 153.8 0.766725C153.742 0.787291 153.378 1.14284 153.323 1.16491C152.942 1.33609 152.877 0.776465 152.855 0.745904C152.599 0.417032 152.18 0.802778 152.054 0.831185C151.515 0.960453 151.033 0.891203 150.606 0.985789C150.314 1.04731 150.291 1.41525 150.05 1.4093C149.302 1.38884 148.988 0.883808 148.289 1.34543C148.134 1.44411 148.301 1.84143 147.724 1.54024C147.691 1.52117 147.28 1.24279 147.041 1.43181C147.012 1.45563 147.016 1.57257 146.976 1.58345C146.708 1.65409 146.515 1.56596 146.24 1.61803C145.958 1.67028 145.611 1.74634 145.267 1.71619C145.06 1.69818 144.815 1.48697 144.716 1.43635C144.447 1.29011 144.161 1.55042 143.985 1.36922C143.806 1.18715 144.138 0.893324 143.678 0.785591C143.669 1.08998 143.643 1.40288 143.626 1.7092C142.684 1.72566 141.713 1.65612 140.739 1.69912C140.616 1.70482 140.747 1.86434 140.615 1.87468C140.057 1.91763 139.611 1.81476 139.033 1.87909C138.579 1.92973 138.124 2.11707 137.67 2.17498C137.39 1.83577 136.677 1.97649 136.203 1.95984C136.034 1.95426 136.042 1.86105 135.92 1.83462C135.459 1.73726 135.683 2.03764 135.558 2.09003C135.021 2.31389 134.946 1.62015 134.294 1.65851C134.261 1.66023 133.867 2.04412 133.811 2.06907C133.456 2.2313 133.747 1.94197 133.521 1.92195C133.106 1.8854 132.812 1.80639 132.316 1.93142C132.164 1.9686 131.843 2.21048 131.565 2.04078C131.528 2.01856 131.544 1.89538 131.515 1.88916C130.988 1.78686 130.985 2.17238 130.686 2.31284C130.387 2.45328 129.9 2.20349 129.799 2.13019C129.536 1.94061 129.992 2.03895 130.005 2.01907C130.138 1.81418 129.897 1.82508 129.654 1.82493C129.618 1.82484 129.582 1.82447 129.548 1.82298C129.499 1.44673 129.143 1.48135 129.283 1.81308C129.299 1.84929 129.497 1.80744 129.548 1.82298C129.337 2.20079 128.946 2.26137 128.493 1.93015C128.28 1.77493 128.472 1.57911 127.84 1.66969C127.552 1.71068 127.673 1.9668 127.418 2.04634C126.831 2.22803 126.109 2.00983 125.508 2.06855C125.292 2.0898 125.508 2.22487 125.36 2.2443C124.97 2.29624 124.605 2.20183 124.22 2.26976C124.186 2.27609 124.276 2.42209 124.156 2.42809C123.249 2.47646 122.433 2.409 121.454 2.44014C120.997 2.4547 120.171 2.56552 119.684 2.5659C118.83 2.56772 117.807 2.38653 117.093 2.46413C116.626 2.51411 116.734 2.6595 116.536 2.76801C116.157 2.97821 115.444 2.65037 115.359 2.59872C115.354 2.59707 115.757 2.54784 115.537 2.47896C115.408 2.32396 115.364 2.59787 115.359 2.59872C115.299 2.56553 114.503 2.55959 114.344 2.59367C114.258 2.61226 114.312 2.75169 114.267 2.75871C113.2 2.92259 112.112 2.99682 111.033 2.96885C111.014 2.96668 111.037 2.80781 110.992 2.80466C110.36 2.75669 109.961 2.96415 109.441 3.09737C108.916 3.23067 108.517 3.2064 108.199 2.94635C107.81 2.9943 107.243 2.89446 106.916 2.83332C106.588 2.77217 106.553 3.08107 106.525 3.08816C105.63 3.31464 105.128 3.15643 104.204 3.16197C103.766 3.16402 102.895 3.23974 102.417 3.29047C102.045 3.33085 101.818 3.26685 101.476 3.32521C101.43 3.33302 101.482 3.46815 101.468 3.47393C101.089 3.65136 101.262 3.3103 101.18 3.2534C100.885 3.04649 100.703 2.93716 100.212 3.05707C100.098 3.08455 99.783 3.57805 99.5753 3.61369C99.3052 3.65916 99.4015 3.48287 99.1185 3.53488C99.0943 3.53917 99.1029 3.64549 98.9275 3.64709C98.123 3.65552 97.2398 3.62521 96.3962 3.66623C96.281 3.67143 96.4349 3.83502 96.2684 3.84531C95.4832 3.8936 94.637 3.91782 93.8748 3.86613C93.6874 3.85287 93.8001 3.73039 93.7583 3.69673C93.5018 3.49324 93.1594 3.81471 93.1012 3.82269C91.7087 4.02149 90.6462 3.78013 89.2304 3.96456C89.1535 3.97516 88.5705 4.32765 88.2944 4.05345C88.2754 4.03523 88.0039 3.75429 87.7799 3.96121C87.766 3.97415 87.9343 4.11775 87.6495 4.11281C87.3646 4.10791 86.9103 4.22435 86.5128 4.07429C86.3869 4.02704 86.0834 3.748 85.7216 3.99234C85.6981 4.00934 85.1453 4.55221 84.9279 4.19939C84.8929 4.14129 84.9127 3.75885 84.4789 3.97032C84.3961 4.01127 84.552 4.09075 84.3321 4.1519C83.9952 4.24608 83.5409 4.16035 83.1287 4.34538C83.0569 4.3781 82.7557 4.64813 82.4993 4.46081C82.4591 4.43148 82.5287 4.30151 82.3965 4.29206C81.7683 4.2465 81.1145 4.35554 80.4768 4.29059C80.2507 4.26784 80.3582 4.05791 80.1217 4.01132C79.8851 3.96475 79.4105 3.92895 79.1685 4.03192C78.9263 4.13493 79.2065 4.45306 78.8396 4.49271C77.2453 4.66494 75.6516 4.53052 74.0558 4.56068C73.819 4.56513 74.0197 4.67528 73.6707 4.69028C72.3793 4.74623 70.1712 4.93724 69.0391 4.7291C68.1363 4.56223 69.2575 4.3689 68.5704 4.31272C68.2389 4.28605 67.8963 4.68035 67.8172 4.69527C67.0442 4.8457 66.5015 4.69652 65.7991 4.77418C65.6545 4.79026 65.8023 4.93955 65.6792 4.95152C65.2588 4.99379 64.8142 4.94106 64.4133 4.96842C64.2336 4.98105 64.2711 5.09784 64.1052 5.09481C63.7084 5.08893 63.357 5.05217 62.9682 4.9557C62.9325 4.94693 63.1647 4.79139 62.8708 4.79673C62.3926 4.80587 61.7969 4.71852 61.2544 4.85131C61.0934 4.89117 61.0969 5.16112 60.7419 4.98766C60.6675 4.95145 60.7485 4.62416 60.3538 4.9189C60.2866 4.96793 59.624 5.37027 59.2788 5.13936C59.1875 5.0786 58.9509 4.82193 58.7565 4.8708C58.7302 4.87842 58.842 5.01937 58.6802 5.03948C58.1099 5.10783 57.512 5.11437 56.9305 5.18124C56.7753 5.19938 57.0126 5.34075 56.7812 5.363C56.1486 5.42425 55.341 5.4158 54.7114 5.39204C54.4793 5.38299 54.6347 5.25291 54.6173 5.24001C54.3385 5.03019 54.1899 5.33277 54.1009 5.35337C53.5475 5.47752 53.1199 5.35374 52.6118 5.40942C52.4716 5.42441 52.5765 5.5622 52.549 5.57585C52.2589 5.70998 52.469 5.44782 52.281 5.42671C51.7541 5.36676 51.1732 5.39959 50.6494 5.43704C50.4571 5.451 50.6796 5.60704 50.5069 5.61767C49.4921 5.68346 48.4172 5.70747 47.4134 5.65403C47.2247 5.64366 47.3383 5.51297 47.2981 5.48557C47.0204 5.29372 46.6366 5.5836 46.5471 5.61317C46.1383 5.7482 45.9832 5.64209 45.6096 5.67678C43.811 5.84726 41.5981 5.85511 39.9215 5.87147C37.7056 5.89467 35.9889 5.838 33.9109 5.94633C33.7801 5.95301 33.9183 6.11615 33.8057 6.12406C32.291 6.22082 30.8656 6.20797 29.3595 6.31249C29.2383 6.32068 29.4189 6.47348 29.2249 6.49197C28.8237 6.53113 28.3401 6.54041 27.9121 6.50537C27.7094 6.48836 27.9749 6.34162 27.7711 6.32728C27.297 6.29357 26.7987 6.30071 26.3311 6.34365C26.1323 6.36226 26.4387 6.51402 26.1802 6.5255C26.0686 6.53068 25.9576 6.53587 25.8472 6.54103C24.129 6.62046 22.5 6.69304 20.791 6.55865C20.664 6.54885 20.5404 6.22187 20.2777 6.29522C20.2611 6.38785 20.2662 6.4959 20.2612 6.59445C17.6494 6.74442 15.047 6.72613 12.4437 6.80506C12.3351 6.80838 12.5343 6.97666 12.3155 6.98431C11.0541 7.02857 9.87702 7.12097 8.59809 6.99387C8.47686 6.9813 8.52848 6.67031 8.14971 6.73113C8.08011 6.74225 7.52787 6.80399 7.39646 6.87596C7.37596 6.88684 7.48814 7.02694 7.30036 7.03812C6.25832 7.09875 5.15057 7.10699 4.11002 7.05754C3.94838 7.04905 4.11381 6.88928 3.99929 6.88187C3.15113 6.83187 2.2099 6.98366 1.40094 6.87434C0.851025 6.80092 1.05728 6.52767 0.746257 6.27789C0.712863 6.24226 0.365561 6.24942 0.345185 6.09811C0.286311 5.71788 0.432148 5.29363 0.3521 4.889C0.349608 4.84519 0.224501 4.85158 0.144904 4.84076C0.123536 4.83811 0.106519 4.83433 0.091791 4.82855C0.0621595 4.82411 0.125155 4.81007 0 4.80873C0.0931162 4.77812 0.0733942 4.74784 0.146427 4.69135C0.163039 4.67648 0.49173 4.59372 0.565272 4.519C0.622374 4.4671 0.512055 4.31655 0.627069 4.24854C0.733113 4.18093 0.862133 4.30577 1.05723 4.22365C1.23485 4.14125 1.15768 3.96817 1.52704 3.93357ZM105.442 2.56041C105.139 2.42344 105.114 2.96547 105.431 2.8247C105.447 2.81726 105.457 2.56711 105.442 2.56041ZM141.703 1.24854C141.312 1.02159 141.052 1.38037 141.334 1.55618C141.614 1.73185 141.822 1.31734 141.703 1.24854ZM145.764 0.957735C145.295 0.782442 145.242 1.5511 145.736 1.38245C145.764 1.3729 145.791 0.967917 145.764 0.957735ZM2.08214 6.15365C2.07524 6.14672 1.83929 6.1485 1.83657 6.15573C1.71805 6.33202 2.18765 6.32842 2.08214 6.15365ZM149.784 0.666612C149.645 0.565942 149.234 0.695273 149.415 0.820098C149.563 0.92043 149.959 0.79173 149.784 0.666612ZM89.7894 2.54494C89.7844 2.53706 89.6103 2.5361 89.6154 2.58149C89.6325 2.72769 89.873 2.67756 89.7894 2.54494ZM156.612 0.626014C155.625 0.540379 155.002 -0.081403 156.122 0.00894555C156.322 0.0276673 155.683 0.199042 155.933 0.262794C156.395 0.3956 156.719 -0.0598892 157.249 0.338815C157.287 0.378623 157.109 0.403332 156.952 0.476956C156.797 0.547529 156.645 0.63113 156.61 0.62674C156.61 0.626498 156.611 0.626256 156.612 0.626014ZM105.247 1.91735C105.241 1.91041 105.002 1.91214 104.996 1.91944C104.873 2.09563 105.355 2.09223 105.247 1.91735ZM79.6363 2.57902C79.6225 2.56427 79.0638 2.57037 79.0461 2.58507C78.7652 2.87625 79.8947 2.86475 79.6363 2.57902ZM121.428 0.952946C121.685 0.771261 122.007 0.739812 122.225 0.949334C121.962 0.946872 121.691 0.954513 121.428 0.952946Z" fill="var(--stroke-0, black)" style="fill:black;fill-opacity:1;"/>
</svg>
