<svg preserveAspectRatio="none" width="100%" height="100%" overflow="visible" style="display: block;" viewBox="0 0 50.3807 34.5979" fill="none" xmlns="http://www.w3.org/2000/svg">
<g id="Frame 9">
<path id="0" d="M36.8905 34.5979C34.0849 34.587 31.6708 33.8965 29.6481 32.5263C27.6364 31.1561 26.0868 29.1715 24.9993 26.5725C23.9227 23.9735 23.3899 20.8471 23.4008 17.1933C23.4008 13.5503 23.939 10.4457 25.0156 7.87929C26.1031 5.31291 27.6527 3.36095 29.6645 2.02339C31.6871 0.674951 34.0958 0.000732422 36.8905 0.000732422C39.6853 0.000732422 42.0885 0.674951 44.1003 2.02339C46.123 3.37182 47.678 5.32923 48.7655 7.8956C49.8529 10.4511 50.3912 13.5503 50.3803 17.1933C50.3803 20.858 49.8366 23.9898 48.7492 26.5888C47.6726 29.1878 46.1284 31.1724 44.1166 32.5426C42.1049 33.9128 39.6962 34.5979 36.8905 34.5979ZM36.8905 28.742C38.8045 28.742 40.3323 27.7796 41.4741 25.8548C42.616 23.93 43.1814 21.0428 43.1706 17.1933C43.1706 14.6595 42.9096 12.5499 42.3876 10.8643C41.8765 9.17879 41.1479 7.91191 40.2018 7.0637C39.2666 6.2155 38.1629 5.79139 36.8905 5.79139C34.9875 5.79139 33.4651 6.74291 32.3233 8.64594C31.1814 10.549 30.6051 13.3981 30.5942 17.1933C30.5942 19.7597 30.8498 21.9019 31.3609 23.6201C31.8829 25.3274 32.6169 26.6106 33.563 27.4697C34.509 28.3179 35.6182 28.742 36.8905 28.742Z" fill="var(--fill-0, white)" style="fill:white;fill-opacity:1;"/>
<path id="$" d="M9.17732 34.1482V0.601465H11.3264V34.1482H9.17732ZM15.8998 11.0062C15.76 9.76567 15.1834 8.8047 14.17 8.12328C13.1566 7.43313 11.8812 7.08805 10.3436 7.08805C9.24284 7.08805 8.2906 7.26277 7.48687 7.61222C6.68315 7.95293 6.05851 8.42468 5.61297 9.02747C5.17616 9.62153 4.95776 10.2986 4.95776 11.0586C4.95776 11.6964 5.10628 12.2467 5.4033 12.7098C5.70907 13.1728 6.10656 13.5615 6.59579 13.876C7.09375 14.1818 7.62665 14.4395 8.1945 14.6492C8.76235 14.8501 9.30836 15.0161 9.83253 15.1471L12.4534 15.8286C13.3095 16.0382 14.1875 16.3221 15.0873 16.6803C15.9871 17.0385 16.8214 17.5103 17.5902 18.0956C18.359 18.6809 18.9793 19.406 19.451 20.2709C19.9315 21.1358 20.1717 22.171 20.1717 23.3766C20.1717 24.8967 19.7786 26.2464 18.9924 27.4258C18.2149 28.6052 17.0835 29.5356 15.5984 30.217C14.122 30.8984 12.3354 31.2391 10.2388 31.2391C8.22945 31.2391 6.49095 30.9202 5.02328 30.2825C3.55561 29.6448 2.40681 28.7406 1.57688 27.5699C0.746942 26.3905 0.288295 24.9928 0.200934 23.3766H4.26324C4.34186 24.3463 4.65636 25.1544 5.20674 25.8009C5.76585 26.4386 6.47785 26.9147 7.34273 27.2292C8.21634 27.535 9.17295 27.6879 10.2125 27.6879C11.357 27.6879 12.3747 27.5088 13.2658 27.1506C14.1657 26.7837 14.8733 26.277 15.3887 25.6305C15.9041 24.9753 16.1619 24.2109 16.1619 23.3373C16.1619 22.5423 15.9347 21.8914 15.4804 21.3847C15.0349 20.878 14.4277 20.4587 13.659 20.1267C12.8989 19.7948 12.0384 19.5021 11.0774 19.2488L7.90621 18.3839C5.75712 17.7986 4.05357 16.938 2.79557 15.8023C1.5463 14.6666 0.921665 13.164 0.921665 11.2945C0.921665 9.7482 1.341 8.39847 2.17967 7.2453C3.01834 6.09213 4.15404 5.19667 5.58676 4.55894C7.01949 3.91246 8.63568 3.58923 10.4353 3.58923C12.2524 3.58923 13.8555 3.90809 15.2446 4.54583C16.6423 5.18357 17.7431 6.06155 18.5468 7.17978C19.3506 8.28927 19.7699 9.56474 19.8048 11.0062H15.8998Z" fill="var(--fill-0, white)" style="fill:white;fill-opacity:1;"/>
</g>
</svg>
